<svg width="36" height="36" viewBox="0 0 36 36" fill="none" xmlns="http://www.w3.org/2000/svg">
<g id="elements">
<path id="Subtract" fill-rule="evenodd" clip-rule="evenodd" d="M17.7223 0.988917C17.9074 0.975049 18.0932 0.975049 18.2783 0.988917C19.0757 1.04867 19.7219 1.40847 20.3123 1.8704C20.8676 2.30487 21.4819 2.91926 22.2004 3.63782L22.8864 4.22516C23.1433 4.44509 23.2717 4.55506 23.4259 4.61648C23.58 4.67791 23.7489 4.68641 24.0866 4.70341L25.0736 4.75309C26.1997 4.75303 27.1622 4.75298 27.9313 4.85639C28.7526 4.96681 29.5288 5.21434 30.1571 5.8426C30.7853 6.47087 31.0329 7.2471 31.1433 8.06837C31.2467 8.83751 31.2466 9.79998 31.2466 10.926V10.9261V10.9261V10.9261L31.2963 11.913C31.3133 12.2508 31.3218 12.4196 31.3832 12.5738C31.4446 12.7279 31.5546 12.8564 31.7745 13.1132L32.3618 13.7992C33.0804 14.5177 33.6948 15.132 34.1293 15.6874C34.5912 16.2778 34.951 16.924 35.0108 17.7214C35.0246 17.9064 35.0246 18.0923 35.0108 18.2773C34.951 19.0747 34.5912 19.7209 34.1293 20.3113C33.6948 20.8666 33.0804 21.4809 32.3619 22.1994L31.7745 22.8855L31.7745 22.8855L31.7745 22.8855C31.5546 23.1423 31.4446 23.2708 31.3832 23.4249C31.3218 23.5791 31.3133 23.7479 31.2963 24.0857L31.2466 25.0726V25.0726V25.0726V25.0727C31.2466 26.1987 31.2467 27.1612 31.1433 27.9303C31.0329 28.7516 30.7853 29.5278 30.1571 30.1561C29.5288 30.7844 28.7526 31.0319 27.9313 31.1423C27.1622 31.2457 26.1997 31.2457 25.0736 31.2456L23.995 31.3206C23.6566 31.3441 23.4875 31.3559 23.3342 31.4206C23.1808 31.4852 23.0544 31.5982 22.8014 31.8241L22.2005 32.3608L22.2004 32.3609C21.4819 33.0794 20.8676 33.6938 20.3123 34.1283C19.7219 34.5902 19.0757 34.95 18.2783 35.0098C18.0932 35.0236 17.9074 35.0236 17.7223 35.0098C16.925 34.95 16.2788 34.5902 15.6884 34.1283C15.133 33.6938 14.5187 33.0794 13.8002 32.3609L13.1142 31.7735L13.1142 31.7735C12.8573 31.5536 12.7289 31.4436 12.5748 31.3822C12.4206 31.3208 12.2517 31.3123 11.914 31.2953L10.9271 31.2456C9.801 31.2457 8.8385 31.2457 8.06935 31.1423C7.24808 31.0319 6.47185 30.7844 5.84358 30.1561C5.21532 29.5278 4.96779 28.7516 4.85737 27.9303C4.75396 27.1612 4.75401 26.1987 4.75406 25.0726L4.70439 24.0857C4.68739 23.7479 4.67889 23.5791 4.61746 23.4249C4.55603 23.2708 4.44607 23.1423 4.22614 22.8855L3.63879 22.1995C2.92024 21.481 2.30585 20.8666 1.87137 20.3113C1.40944 19.7209 1.04965 19.0747 0.989894 18.2773C0.976025 18.0923 0.976025 17.9064 0.989894 17.7214C1.04965 16.924 1.40944 16.2778 1.87137 15.6874C2.30585 15.1321 2.92024 14.5177 3.63879 13.7992L4.22614 13.1132C4.44607 12.8564 4.55603 12.7279 4.61746 12.5738C4.67889 12.4196 4.68739 12.2508 4.70439 11.913L4.75406 10.9261C4.75401 9.80001 4.75396 8.83752 4.85737 8.06837C4.96779 7.2471 5.21532 6.47087 5.84358 5.8426C6.47185 5.21434 7.24808 4.96681 8.06935 4.85639C8.83849 4.75298 9.80099 4.75303 10.9271 4.75309L12.0057 4.67809C12.344 4.65457 12.5132 4.64281 12.6665 4.57813C12.8198 4.51344 12.9463 4.40049 13.1992 4.17458L13.8002 3.63781C14.5187 2.91926 15.133 2.30487 15.6884 1.8704C16.2788 1.40847 16.925 1.04867 17.7223 0.988917ZM16.417 24.3327C16.417 23.4582 17.1227 22.7493 17.9932 22.7493H18.0074C18.8779 22.7493 19.5837 23.4582 19.5837 24.3327C19.5837 25.2071 18.8779 25.916 18.0074 25.916H17.9932C17.1227 25.916 16.417 25.2071 16.417 24.3327ZM16.417 17.9993C16.417 18.8738 17.1259 19.5827 18.0003 19.5827C18.8748 19.5827 19.5837 18.8738 19.5837 17.9993V11.666C19.5837 10.7916 18.8748 10.0827 18.0003 10.0827C17.1259 10.0827 16.417 10.7916 16.417 11.666L16.417 17.9993Z" fill="#FF4D6B"/>
</g>
</svg>
